<?xml version="1.0" standalone="no"?>
<!DOCTYPE svg PUBLIC "-//W3C//DTD SVG 20010904//EN"
 "http://www.w3.org/TR/2001/REC-SVG-20010904/DTD/svg10.dtd">
<svg version="1.0" xmlns="http://www.w3.org/2000/svg"
 width="2000.000000pt" height="2000.000000pt" viewBox="0 0 2000.000000 2000.000000"
 preserveAspectRatio="xMidYMid meet">
<metadata>
Created by potrace 1.11, written by Peter Selinger 2001-2013
</metadata>
<g transform="translate(0.000000,2000.000000) scale(0.100000,-0.100000)"
fill="#000000" stroke="none">
<path d="M0 10000 l0 -10000 10000 0 10000 0 0 10000 0 10000 -10000 0 -10000
0 0 -10000z m12030 8177 c52 -14 111 -32 130 -41 19 -9 27 -14 18 -12 -143 39
-337 51 -453 27 -258 -53 -482 -227 -677 -526 -40 -61 -148 -252 -148 -261 0
-2 -15 -37 -34 -78 -68 -146 -166 -430 -209 -606 -8 -30 -18 -54 -23 -54 -5 1
-72 9 -149 19 -77 9 -141 18 -143 20 -9 8 98 265 186 446 407 834 938 1211
1502 1066z m-4725 -82 c921 -107 1630 -550 2092 -1305 l40 -65 -306 0 c-168 0
-327 -3 -352 -7 l-47 -7 -38 57 c-368 538 -908 904 -1521 1031 -331 69 -774
71 -1153 6 -431 -74 -895 -218 -1291 -401 -68 -31 -128 -60 -134 -64 -5 -4
-55 -31 -110 -60 -157 -83 -389 -230 -470 -299 -16 -14 -3 2 30 35 540 534
1487 967 2345 1069 305 37 652 41 915 10z m-1645 -1985 c235 -36 597 -153 950
-308 164 -72 654 -320 875 -443 110 -61 227 -125 260 -141 180 -90 225 -171
191 -348 -17 -89 -11 -115 20 -89 23 19 162 181 360 419 94 113 204 236 245
273 71 64 188 157 199 157 3 0 20 -44 38 -97 148 -433 452 -693 898 -769 135
-23 387 -15 492 15 325 94 509 292 725 777 83 186 115 243 170 302 75 79 86
83 182 65 211 -38 391 -75 398 -82 4 -4 18 -55 32 -112 36 -158 79 -280 155
-434 96 -197 156 -283 284 -410 159 -157 310 -241 497 -275 88 -17 286 -14
393 5 49 8 91 14 93 12 7 -8 43 -117 43 -132 0 -20 0 -20 -84 11 -160 59 -354
17 -488 -105 -61 -56 -117 -146 -100 -163 8 -8 28 6 70 48 104 105 248 162
382 151 63 -5 223 -50 246 -68 7 -5 14 -23 16 -40 5 -30 4 -31 -26 -25 -155
32 -266 31 -378 -4 -104 -32 -193 -123 -237 -241 -18 -47 -50 -171 -51 -191 0
-15 230 -159 323 -203 117 -54 260 -93 355 -96 l71 -2 41 -101 c22 -56 63
-137 91 -180 107 -168 148 -280 149 -407 0 -84 -17 -161 -66 -302 -24 -71 -47
-150 -50 -176 -7 -58 4 -83 86 -190 162 -213 215 -411 191 -709 -16 -194 -85
-550 -126 -646 -7 -17 -25 -60 -40 -96 -84 -200 -216 -381 -370 -508 -136
-112 -224 -161 -342 -191 -136 -33 -316 -135 -404 -228 -45 -46 -136 -177
-193 -276 -16 -26 -33 -44 -38 -40 -7 3 -8 1 -4 -5 5 -9 -179 -372 -189 -372
-3 0 1 19 43 190 70 285 89 384 69 359 -8 -9 -79 -170 -110 -249 -99 -250
-171 -420 -179 -420 -8 0 -4 187 12 460 4 80 4 149 0 154 -14 14 -27 -1 -48
-56 -88 -228 -138 -370 -163 -461 -20 -74 -27 -20 -32 243 -4 238 -6 261 -31
349 -37 133 -94 228 -196 332 -71 72 -107 97 -220 161 -74 42 -219 124 -323
182 -103 58 -192 106 -197 106 -18 0 -11 -18 9 -25 29 -9 182 -176 237 -258
46 -67 49 -76 49 -134 0 -54 -4 -64 -28 -87 -49 -45 -80 -54 -243 -72 -334
-37 -763 -15 -1120 55 -112 22 -153 36 -344 116 -74 31 -151 62 -170 70 -41
15 -177 82 -194 96 -325 260 -514 448 -715 709 -312 404 -444 668 -480 955
-18 149 -26 566 -12 680 27 224 100 512 191 755 16 41 32 86 35 100 l8 25 -22
-25 -22 -25 17 28 c9 15 21 27 27 27 6 0 7 3 4 6 -3 4 3 18 13 32 47 59 32 61
-184 31 -82 -11 -150 -18 -153 -16 -2 3 1 53 7 112 6 59 11 150 12 203 1 106
-14 159 -73 255 -16 26 -29 51 -28 55 0 4 39 36 87 71 88 64 145 127 164 182
19 55 6 159 -30 231 -46 95 -170 220 -312 315 -104 70 -195 114 -335 162 -429
149 -767 313 -1102 535 -60 40 -69 27 -32 -47 69 -136 256 -275 544 -404 50
-23 117 -53 150 -68 33 -16 62 -29 65 -30 77 -27 460 -209 460 -219 0 -1 -12
-2 -27 -1 -16 0 -27 5 -26 11 2 12 -188 109 -233 120 -16 4 -37 13 -46 22 -10
8 -24 12 -33 8 -9 -3 -14 -2 -11 3 6 9 -63 41 -88 41 -8 0 -22 7 -31 16 -10
11 -36 17 -71 19 -30 1 -53 6 -52 11 3 9 6 9 48 -1 14 -3 1 6 -29 20 -33 15
-63 23 -80 20 -22 -5 -23 -4 -6 4 17 8 18 10 3 10 -10 1 -18 6 -18 12 0 6 -12
8 -32 5 -22 -4 -27 -3 -14 2 19 8 19 9 0 16 -11 4 -20 3 -22 -3 -2 -6 -8 -11
-14 -11 -6 0 -5 6 3 16 11 13 9 15 -12 11 -13 -2 -18 -2 -11 0 10 4 9 8 -5 19
-21 15 -37 18 -29 5 3 -5 -1 -12 -10 -15 -8 -3 -13 -2 -9 3 8 14 -6 42 -17 35
-6 -4 -14 0 -19 7 -8 12 -11 12 -18 -1 -6 -8 -13 -11 -18 -7 -4 5 -1 12 7 17
11 7 8 11 -13 21 -15 7 -27 16 -27 21 0 12 -38 10 -46 -3 -7 -11 12 -29 31
-29 6 0 3 4 -5 10 -8 5 -12 12 -8 15 3 4 18 -1 33 -11 25 -17 26 -19 9 -31
-10 -7 -14 -13 -9 -13 4 0 6 -2 3 -6 -3 -3 -23 11 -44 31 -36 33 -38 37 -20
47 17 10 17 12 -10 34 -36 29 -54 31 -29 4 10 -11 14 -20 8 -20 -5 0 -18 9
-28 20 -11 12 -13 20 -6 20 7 0 9 5 5 11 -4 8 -9 7 -14 -2 -11 -17 86 -144
176 -231 79 -77 139 -128 148 -128 4 0 12 -5 19 -10 74 -63 321 -185 592 -292
65 -25 169 -79 271 -140 134 -79 193 -160 181 -249 -8 -63 -45 -128 -88 -155
-22 -13 -39 -28 -39 -32 0 -4 12 -25 25 -47 14 -22 25 -46 25 -52 0 -7 9 -22
20 -33 11 -11 20 -26 20 -32 -1 -7 -8 -2 -16 12 l-15 25 6 -25 c19 -75 25
-116 31 -225 7 -148 -5 -254 -40 -326 -23 -50 -32 -59 -88 -86 -35 -17 -86
-36 -114 -43 l-51 -13 -79 48 c-134 80 -224 153 -364 295 -430 432 -817 1168
-1075 2040 -48 163 -95 353 -95 385 0 22 4 25 38 25 20 0 93 -9 162 -20z
m9454 -118 c5 -8 -27 -144 -62 -262 -65 -218 -221 -508 -384 -711 -251 -313
-598 -594 -1006 -815 -75 -41 -144 -74 -152 -74 -34 1 -47 26 -59 111 -33 228
65 474 267 672 81 79 98 88 108 62 4 -8 11 -12 17 -8 6 3 7 1 3 -5 -14 -23
102 -161 169 -201 l35 -20 15 36 c8 19 15 40 15 45 0 10 60 131 69 138 3 3 17
25 30 50 33 62 141 211 168 233 13 11 23 24 22 30 -4 31 2 47 18 47 14 0 14
-2 -2 -20 -10 -11 -16 -20 -13 -20 9 0 189 183 184 187 -2 2 -11 -3 -19 -11
-15 -16 -47 -12 -47 4 0 12 61 54 83 57 17 3 18 1 7 -12 -7 -8 -16 -13 -20
-10 -4 3 -19 -4 -31 -16 -21 -18 -22 -20 -4 -14 11 4 25 8 31 9 5 1 23 11 37
23 27 21 27 22 7 28 -18 6 -14 11 33 43 80 55 109 69 67 33 -19 -17 -39 -31
-43 -31 -5 0 -20 -9 -34 -20 l-26 -20 23 3 c13 2 26 9 28 15 2 7 8 12 14 12
13 0 88 67 82 73 -6 6 36 37 91 66 79 43 150 91 133 91 -25 0 -220 -81 -343
-142 -225 -113 -377 -219 -532 -373 l-112 -112 -15 66 c-8 36 -18 87 -21 114
-8 52 -19 57 -59 26 -14 -11 -26 -19 -26 -16 0 2 11 35 24 73 12 38 36 128 51
199 16 72 31 133 35 137 14 18 188 41 485 63 116 9 237 23 269 31 77 20 247
84 311 117 53 28 71 32 79 19z m-637 -539 c-4 -3 -1 -13 6 -21 8 -11 9 -16 1
-19 -6 -2 -20 -11 -30 -19 -17 -14 -17 -15 -1 -10 9 3 17 1 17 -3 0 -11 -30
-23 -30 -13 0 4 -4 13 -9 21 -8 12 -11 12 -25 -1 -8 -9 -12 -19 -8 -22 3 -4
-1 -4 -10 -1 -9 4 -19 2 -23 -4 -3 -7 2 -11 14 -11 11 0 24 8 30 17 5 10 13
15 17 10 9 -8 -25 -49 -36 -42 -4 3 -14 -2 -21 -11 -8 -10 -21 -13 -36 -9 -13
3 -23 1 -23 -5 0 -5 9 -10 20 -10 11 0 20 -6 20 -14 0 -17 -28 -41 -37 -32 -4
3 2 13 13 21 10 8 15 14 9 15 -14 0 -28 -12 -41 -34 -6 -11 -17 -22 -25 -24
-10 -4 -9 1 4 16 10 11 14 23 9 26 -6 3 -12 -1 -16 -9 -3 -8 -12 -15 -21 -15
-8 0 -15 -5 -15 -11 0 -5 5 -7 12 -3 8 5 9 2 5 -9 -3 -10 -2 -17 3 -17 5 0 6
-7 3 -17 -4 -11 -3 -14 5 -9 7 4 12 3 12 -2 0 -20 -14 -19 -37 4 -27 28 -43
31 -43 9 0 -9 -6 -18 -14 -21 -8 -3 -13 -11 -10 -18 3 -7 -2 -19 -11 -26 -8
-7 -15 -23 -15 -35 0 -12 -8 -29 -17 -36 -16 -12 -17 -12 -7 1 6 8 14 28 16
43 4 23 2 27 -11 22 -34 -13 169 190 259 258 30 23 64 50 74 60 18 16 37 25
23 10z m-8387 -87 c0 -2 -7 -7 -16 -10 -8 -3 -12 -2 -9 4 6 10 25 14 25 6z
m8220 -135 c0 -5 -7 -12 -16 -15 -14 -5 -15 -4 -4 9 14 17 20 19 20 6z m-8030
-23 c-15 -5 -27 -5 -34 2 -8 8 -6 9 8 4 13 -5 17 -4 13 3 -5 7 1 9 15 5 l22
-5 -24 -9z m7560 -38 c-13 -9 -7 -14 13 -11 4 0 7 -3 7 -9 0 -5 -7 -10 -16
-10 -14 0 -15 -2 -3 -17 13 -16 12 -17 -3 -5 -9 8 -23 11 -30 7 -7 -4 -5 0 5
8 26 22 20 32 -8 13 -14 -9 -25 -13 -25 -9 0 10 50 42 65 43 6 0 3 -5 -5 -10z
m380 5 c0 -2 -10 -10 -22 -16 -21 -11 -22 -11 -9 4 13 16 31 23 31 12z m-7772
-22 c-10 -2 -26 -2 -35 0 -10 3 -2 5 17 5 19 0 27 -2 18 -5z m7777 -12 c-3 -6
-11 -11 -17 -11 -6 0 -6 6 2 15 14 17 26 13 15 -4z m-7775 -11 c0 -5 -7 -7
-15 -4 -8 4 -15 8 -15 10 0 2 7 4 15 4 8 0 15 -4 15 -10z m7450 -89 c0 -3 -5
1 -10 9 -8 13 -10 12 -10 -2 0 -10 -4 -18 -9 -18 -13 0 -21 39 -14 72 l6 29
18 -42 c11 -22 19 -44 19 -48z m-143 39 c0 -20 -3 -26 -9 -18 -6 10 -8 10 -9
-2 -1 -8 -1 -19 0 -23 1 -5 -3 -6 -9 -2 -5 3 -13 -1 -16 -9 -3 -9 -10 -16 -15
-16 -6 0 47 93 57 99 0 1 1 -13 1 -29z m337 -7 c-10 -7 -14 -13 -10 -13 4 0 0
-7 -8 -15 -9 -9 -21 -35 -27 -58 -18 -67 -19 -70 -24 -65 -3 2 2 27 10 54 16
55 68 141 74 123 2 -7 -4 -18 -15 -26z m-7498 12 c17 -16 14 -18 -10 -9 -9 3
-16 10 -16 15 0 13 9 11 26 -6z m84 -25 c0 -5 -4 -10 -10 -10 -5 0 -10 5 -10
10 0 6 5 10 10 10 6 0 10 -4 10 -10z m7072 -47 c-5 -10 -7 -23 -5 -30 6 -17
-17 -27 -30 -14 -9 9 -8 11 6 6 20 -8 23 5 5 24 -8 9 -8 11 -2 8 7 -4 14 0 18
8 3 8 8 15 11 15 3 0 2 -8 -3 -17z m210 -39 c43 -46 69 -86 33 -50 -12 12 -20
15 -23 7 -2 -6 -8 -8 -14 -5 -7 4 -6 9 2 14 20 12 1 31 -26 26 -22 -4 -24 -3
-13 11 11 13 10 17 -6 29 -10 8 -14 14 -7 14 6 0 31 -21 54 -46z m-254 20 c-4
-3 -10 -5 -13 -4 -4 1 -16 -11 -26 -26 -13 -20 -15 -32 -8 -46 12 -23 4 -37
-20 -35 -12 1 -17 6 -13 17 4 11 -1 10 -18 -5 -32 -27 -16 -1 35 58 22 26 46
46 54 47 8 0 12 -3 9 -6z m-6874 -22 c2 -4 -4 -8 -14 -8 -10 0 -16 4 -14 8 3
4 9 8 14 8 5 0 11 -4 14 -8z m7066 -16 c0 -3 -4 -8 -10 -11 -5 -3 -10 -1 -10
4 0 6 5 11 10 11 6 0 10 -2 10 -4z m-7264 -33 c-6 -6 -36 9 -36 18 0 5 9 4 20
-3 10 -7 18 -14 16 -15z m7474 13 c0 -3 -4 -8 -10 -11 -5 -3 -10 -1 -10 4 0 6
5 11 10 11 6 0 10 -2 10 -4z m-7113 -22 c-3 -3 -12 -4 -19 -1 -8 3 -5 6 6 6
11 1 17 -2 13 -5z m7013 -24 c8 -5 11 -10 5 -10 -5 0 -17 5 -25 10 -8 5 -10
10 -5 10 6 0 17 -5 25 -10z m-7013 -6 c-3 -3 -12 -4 -19 -1 -8 3 -5 6 6 6 11
1 17 -2 13 -5z m302 -141 c52 -47 61 -61 48 -66 -9 -3 -16 -3 -14 1 1 4 -6 18
-16 32 -14 19 -19 22 -26 11 -6 -9 -11 -10 -15 -2 -4 6 -3 11 3 11 6 0 8 7 5
15 -4 9 -13 13 -24 10 -10 -3 -23 2 -31 12 -13 16 -12 17 4 4 9 -8 20 -12 23
-9 6 6 -56 56 -103 84 -18 10 -33 22 -33 27 0 13 111 -67 179 -130z m6281 123
c0 -3 -28 -26 -62 -53 -35 -26 -71 -56 -80 -65 -10 -10 -18 -14 -18 -9 0 6 26
30 58 54 32 25 64 52 71 61 12 15 31 22 31 12z m-5 -36 c-10 -11 -22 -20 -28
-20 -5 0 1 9 14 20 31 25 37 25 14 0z m-75 -54 c0 -2 -8 -10 -17 -17 -16 -13
-17 -12 -4 4 13 16 21 21 21 13z m-75 -96 c-6 -18 -9 -20 -16 -9 -7 12 -9 12
-9 0 0 -8 -2 -12 -5 -9 -3 3 -2 13 1 22 5 14 9 15 16 4 7 -9 8 -6 4 11 -3 17
-2 21 6 13 5 -5 7 -20 3 -32z m-110 -41 c-9 -35 -18 -97 -18 -136 -1 -40 -3
-73 -4 -73 -2 0 -51 150 -62 193 l-10 38 52 23 c29 13 53 22 55 21 2 -2 -4
-31 -13 -66z m-5881 -63 c20 -33 36 -64 36 -70 0 -5 -19 21 -41 60 -23 38 -49
78 -57 89 l-16 20 21 -20 c12 -11 38 -47 57 -79z m5950 27 c-6 -25 -24 -56
-24 -41 0 10 22 68 26 68 2 0 1 -12 -2 -27z m-27 -95 c-3 -7 -5 -2 -5 12 0 14
2 19 5 13 2 -7 2 -19 0 -25z m-4 -48 c-7 -27 -13 -25 -11 4 1 14 5 23 9 20 4
-2 5 -13 2 -24z m-5877 -62 c3 -4 -1 -5 -10 -4 -8 1 -18 5 -22 8 -3 4 1 5 10
4 8 -1 18 -5 22 -8z m5871 -50 c-3 -8 -6 -5 -6 6 -1 11 2 17 5 13 3 -3 4 -12
1 -19z m-5875 -13 c-8 -16 -9 -16 -15 -1 -4 10 -3 15 3 11 6 -3 10 -1 10 6 0
7 3 10 6 6 3 -3 2 -13 -4 -22z m-42 -45 c-8 -6 -24 -15 -35 -21 -16 -8 -15 -6
4 10 13 12 28 21 35 21 6 0 4 -5 -4 -10z m5951 -17 c13 -16 12 -17 -3 -4 -17
13 -22 21 -14 21 2 0 10 -8 17 -17z m-217 -43 c59 -20 96 -44 96 -63 0 -5 -6
-4 -14 2 -39 33 -259 53 -338 31 -112 -31 -162 -171 -99 -274 60 -96 315 -135
468 -71 l36 15 -6 -82 c-4 -46 -13 -105 -20 -133 l-14 -50 -54 3 c-66 5 -193
44 -274 85 -81 40 -192 125 -242 184 l-41 49 28 66 c55 132 139 223 233 254
55 18 164 11 241 -16z m276 -46 c0 -11 -49 48 -50 59 0 5 11 -5 25 -21 14 -17
25 -34 25 -38z m-609 -241 c13 -16 12 -17 -3 -4 -10 7 -18 15 -18 17 0 8 8 3
21 -13z m451 -53 c-18 -17 -38 -30 -45 -30 -6 0 2 9 19 19 18 11 35 24 38 30
4 6 10 11 14 11 4 0 -8 -14 -26 -30z m-159 3 c-7 -2 -21 -2 -30 0 -10 3 -4 5
12 5 17 0 24 -2 18 -5z m-168 -23 c-3 -5 -12 -10 -18 -10 -7 0 -6 4 3 10 19
12 23 12 15 0z m-5595 -384 c0 -2 -8 -10 -17 -17 -16 -13 -17 -12 -4 4 13 16
21 21 21 13z m44 -251 c-9 -14 -18 -25 -21 -25 -5 0 5 18 20 38 17 22 18 13 1
-13z m247 -88 c-10 -9 -11 -8 -5 6 3 10 9 15 12 12 3 -3 0 -11 -7 -18z m-328
-52 c-9 -19 -18 -33 -21 -31 -4 5 26 66 33 66 3 0 -3 -16 -12 -35z m-253
-1492 c0 -47 46 -235 88 -360 113 -337 299 -702 552 -1083 105 -159 313 -446
370 -513 51 -60 147 -182 145 -185 -1 -2 -56 10 -121 27 -132 33 -289 94 -377
148 -32 19 -61 32 -64 29 -12 -11 28 -120 70 -191 161 -277 472 -564 787 -727
79 -41 239 -108 257 -108 13 0 263 -96 343 -132 346 -155 687 -426 869 -690
20 -29 39 -55 42 -58 14 -12 121 -213 154 -290 20 -47 40 -94 45 -105 27 -58
92 -324 111 -453 25 -176 40 -630 20 -618 -8 6 -10 0 -6 -21 l6 -28 -15 25
c-10 17 -15 51 -16 104 0 104 -9 94 -11 -12 -1 -73 -3 -82 -20 -82 -17 0 -19
8 -19 60 0 41 -4 60 -12 60 -9 0 -12 -17 -10 -60 3 -39 0 -60 -7 -60 -6 0 -11
9 -11 20 0 18 -7 20 -80 20 -73 0 -80 -2 -80 -20 0 -19 -7 -20 -120 -20 -119
0 -120 0 -126 -25 -3 -13 -2 -38 4 -53 5 -16 7 -35 2 -41 -9 -16 -21 69 -15
111 l5 33 -13 -28 -13 -28 -14 43 c-7 24 -17 48 -20 53 -4 6 -10 28 -14 50 -6
36 -47 181 -62 220 -4 8 -2 15 4 15 6 0 14 -15 18 -32 6 -29 8 -31 16 -13 6
15 7 11 4 -15 -3 -19 0 -44 5 -55 7 -16 8 -13 4 13 -2 18 -1 31 3 28 4 -2 7
11 8 30 0 21 -3 30 -8 22 -6 -10 -8 -10 -8 2 0 13 -1 13 -11 0 -9 -12 -10 -11
-6 7 3 12 2 22 -2 21 -26 -3 -40 6 -46 30 -3 15 -24 62 -46 106 -21 43 -39 80
-39 82 0 2 7 4 15 4 8 0 15 5 15 11 0 5 -4 8 -9 5 -12 -8 -19 13 -16 53 2 30
0 32 -11 17 -11 -16 -13 -16 -23 1 -6 10 -11 14 -11 9 0 -5 10 -24 21 -43 12
-19 19 -36 17 -39 -3 -2 -23 24 -44 58 -46 74 -51 83 -34 73 9 -6 9 -3 1 13
-7 14 -8 23 -1 27 5 3 10 12 10 18 0 7 -5 4 -11 -6 -6 -10 -15 -14 -22 -10 -7
4 -6 -1 2 -10 8 -10 12 -20 9 -23 -3 -2 -24 20 -46 50 -67 88 -206 229 -294
297 -45 35 -90 72 -100 82 -10 9 -20 17 -23 17 -12 0 -155 97 -150 102 4 3 1
9 -6 14 -8 4 -10 3 -5 -4 12 -19 -3 -14 -78 27 -75 42 -266 125 -310 137 -14
3 -24 9 -22 13 2 3 -11 6 -30 7 -40 1 -42 -5 -11 -43 49 -61 68 -94 61 -105
-4 -6 -3 -8 3 -5 6 4 18 -4 27 -18 18 -28 21 -39 6 -30 -6 3 -7 -1 -3 -10 4
-11 8 -13 13 -5 6 9 80 -88 80 -106 0 -3 9 -19 21 -35 l21 -30 -45 28 c-25 15
-43 31 -40 37 3 5 1 6 -5 3 -8 -6 -119 58 -157 90 -5 5 -32 24 -60 43 -46 31
-118 84 -155 113 -8 7 -35 28 -60 47 -200 153 -530 476 -514 502 4 6 3 8 -3 5
-19 -12 -180 199 -272 357 -173 295 -256 583 -249 868 1 64 -1 120 -5 124 -4
4 -7 2 -7 -4 0 -6 -25 -63 -55 -127 -30 -63 -55 -119 -55 -123 0 -5 -7 -17
-16 -28 -38 -47 12 1325 76 2071 11 127 20 236 20 243 0 6 5 12 10 12 6 0 10
-12 10 -27z m-693 -545 c-3 -8 -6 -5 -6 6 -1 11 2 17 5 13 3 -3 4 -12 1 -19z
m-37 -198 c-16 -85 -28 -132 -25 -105 7 74 49 292 52 275 2 -8 -10 -85 -27
-170z m-33 -192 c-3 -7 -5 -2 -5 12 0 14 2 19 5 13 2 -7 2 -19 0 -25z m-21
-160 c-8 -51 -18 -115 -22 -141 -3 -26 -9 -46 -11 -43 -3 3 5 74 18 157 13 84
25 145 27 136 2 -9 -3 -59 -12 -109z m-47 -317 c-7 -61 -15 -109 -17 -106 -3
2 1 54 8 115 7 61 15 109 17 106 3 -2 -1 -54 -8 -115z m-22 -198 c-3 -10 -5
-2 -5 17 0 19 2 27 5 18 2 -10 2 -26 0 -35z m-10 -65 c-3 -8 -6 -5 -6 6 -1 11
2 17 5 13 3 -3 4 -12 1 -19z m-10 -150 c-2 -13 -4 -3 -4 22 0 25 2 35 4 23 2
-13 2 -33 0 -45z m-10 -150 c-2 -18 -4 -4 -4 32 0 36 2 50 4 33 2 -18 2 -48 0
-65z m0 -265 c-2 -16 -4 -3 -4 27 0 30 2 43 4 28 2 -16 2 -40 0 -55z m82 -258
c0 -5 -6 1 -14 15 -8 14 -14 30 -14 35 0 6 6 -1 14 -15 8 -14 14 -29 14 -35z
m95 -221 c3 -8 2 -12 -4 -9 -6 3 -10 10 -10 16 0 14 7 11 14 -7z m55 -124 c11
-24 11 -24 -3 -6 -9 11 -16 24 -16 30 0 12 5 7 19 -24z m5424 -430 c-3 -12 -8
-19 -11 -16 -5 6 5 36 12 36 2 0 2 -9 -1 -20z m-26 -82 c-3 -8 -6 -5 -6 6 -1
11 2 17 5 13 3 -3 4 -12 1 -19z m-68 -227 c-7 -23 -14 -39 -16 -37 -3 2 1 23
8 45 7 23 14 39 16 37 3 -2 -1 -23 -8 -45z m-59 -188 c-11 -17 -11 -17 -6 0 3
10 6 24 7 30 0 9 2 9 5 0 3 -7 0 -20 -6 -30z m-24 -74 c-18 -41 -21 -29 -4 18
7 19 14 30 16 25 1 -4 -4 -24 -12 -43z m-55 -166 c-12 -20 -14 -14 -5 12 4 9
9 14 11 11 3 -2 0 -13 -6 -23z m-31 -98 c-16 -47 -23 -40 -9 9 6 21 13 36 16
33 3 -3 0 -22 -7 -42z m-99 -262 c-12 -20 -14 -14 -5 12 4 9 9 14 11 11 3 -2
0 -13 -6 -23z m-80 -200 c-11 -21 -20 -35 -21 -31 0 12 33 78 38 74 2 -2 -6
-21 -17 -43z m-68 -158 c-3 -9 -8 -14 -10 -11 -3 3 -2 9 2 15 9 16 15 13 8 -4z
m-92 -202 c-12 -20 -14 -14 -5 12 4 9 9 14 11 11 3 -2 0 -13 -6 -23z m-28 -58
c-9 -19 -18 -33 -21 -31 -4 5 26 66 33 66 3 0 -3 -16 -12 -35z m-70 -140 c-3
-9 -8 -14 -10 -11 -3 3 -2 9 2 15 9 16 15 13 8 -4z m-1356 -267 c-2 -13 -4 -5
-4 17 -1 22 1 32 4 23 2 -10 2 -28 0 -40z m32 -40 c1 -23 7 -28 39 -35 49 -10
419 -10 455 0 25 7 27 10 15 24 -7 10 -8 14 -1 10 6 -4 14 -1 16 5 3 7 6 1 6
-14 1 -20 -4 -28 -16 -29 -15 0 -15 -2 2 -9 12 -5 -95 -9 -262 -9 -263 -1
-283 0 -282 17 0 10 3 12 6 5 2 -7 14 -12 26 -12 17 1 18 2 5 6 -10 2 -18 12
-18 21 0 9 -2 35 -5 57 -4 32 -3 35 4 15 5 -14 9 -37 10 -52z m541 45 c0 -19
-3 -24 -10 -17 -6 6 -8 18 -4 27 9 24 14 21 14 -10z m-569 -56 c-10 -9 -11 -8
-5 6 3 10 9 15 12 12 3 -3 0 -11 -7 -18z m1160 -40 c-10 -9 -11 -8 -5 6 3 10
9 15 12 12 3 -3 0 -11 -7 -18z m6007 -1899 l-3 -1673 -5 1665 c-3 916 -6 1666
-8 1668 -1 1 -3132 1 -6957 0 -3825 -2 -6955 0 -6955 5 0 4 3134 7 6965 7
l6965 0 -2 -1672z m-9001 1446 c-3 -3 -12 -4 -19 -1 -8 3 -5 6 6 6 11 1 17 -2
13 -5z m8785 -511 c-1 -274 -3 -583 -5 -688 -1 -104 -3 119 -5 498 -1 378 1
687 6 687 4 0 6 -224 4 -497z m-3885 30 c-1 -82 -3 -15 -3 147 0 162 2 229 3
148 2 -82 2 -214 0 -295z m-8779 160 c-93 -2 -243 -2 -335 0 -93 1 -17 3 167
3 184 0 260 -2 168 -3z m1062 -990 c0 -549 0 -1004 0 -1010 0 -15 40 -18 40
-3 0 12 65 30 108 30 18 0 39 6 47 13 7 7 37 19 66 25 l54 12 -3 965 -2 965
290 0 290 0 0 -998 0 -998 -36 -1 c-19 -1 -43 -8 -52 -16 -9 -8 -35 -17 -57
-21 -79 -13 -95 -18 -90 -26 3 -5 -40 -16 -95 -26 -55 -10 -100 -21 -100 -25
0 -6 -36 -16 -128 -35 -13 -3 -20 -9 -16 -16 4 -6 1 -9 -7 -6 -8 3 -21 2 -30
-3 -8 -4 -34 -10 -56 -13 -23 -2 -54 -11 -70 -19 -16 -9 -61 -22 -101 -30 -40
-9 -78 -20 -85 -25 -7 -6 -38 -15 -71 -21 -32 -6 -64 -16 -71 -21 -7 -6 -46
-17 -86 -26 -40 -8 -78 -19 -84 -23 -5 -5 -46 -17 -90 -26 -44 -10 -82 -21
-85 -26 -3 -4 -16 -10 -30 -14 l-25 -6 3 121 c3 99 1 121 -12 126 -16 6 -125
-14 -141 -26 -15 -12 -120 -40 -148 -40 -14 0 -32 -6 -39 -14 -8 -7 -46 -19
-86 -26 -40 -7 -72 -17 -72 -21 0 -6 -36 -16 -128 -35 -13 -2 -21 -8 -18 -13
3 -4 0 -8 -7 -8 -7 0 -54 -8 -106 -18 -59 -11 -88 -21 -79 -26 10 -7 9 -9 -4
-9 -9 0 -23 -3 -31 -6 -14 -5 -16 128 -17 1162 l-1 1168 -36 33 -36 33 317 0
316 0 0 -1000 c0 -993 0 -1000 20 -1000 11 0 20 4 20 8 0 10 89 32 126 32 13
0 24 4 24 9 0 5 26 15 58 22 31 7 63 17 70 22 11 9 12 179 6 959 l-7 948 289
2 289 3 -290 5 -290 5 293 3 293 2 -1 -997z m2173 990 c-139 -2 -367 -2 -505
0 -139 1 -26 2 252 2 278 0 391 -1 253 -2z m1760 0 c-139 -2 -367 -2 -505 0
-139 1 -26 2 252 2 278 0 391 -1 253 -2z m1377 -3 l-645 -5 672 0 c370 0 665
-3 655 -7 -12 -5 -8 -7 14 -7 43 -1 95 -21 88 -33 -4 -6 -1 -9 7 -6 7 2 28
-11 46 -30 l33 -34 0 -1084 c0 -1072 0 -1084 -20 -1101 -11 -10 -20 -23 -20
-29 0 -6 -21 -19 -47 -29 -27 -10 -50 -22 -53 -26 -15 -23 -170 -29 -730 -28
-327 0 -589 3 -582 6 9 4 12 248 12 1174 0 1008 -2 1169 -14 1169 -8 0 -18 9
-21 20 -3 11 -12 20 -19 20 -7 0 -21 9 -31 20 -18 20 -18 20 641 18 l659 -3
-645 -5z m1425 0 l-320 -5 318 -3 317 -2 0 -1029 c0 -687 -3 -1032 -10 -1036
-6 -4 -29 -8 -51 -10 -23 -3 -47 -9 -53 -14 -6 -5 -42 -17 -80 -25 -68 -16
-96 -30 -96 -47 0 -5 238 -9 543 -9 l542 0 0 -120 0 -120 -537 0 c-501 0 -696
8 -684 29 3 4 -18 15 -45 24 -86 31 -79 -67 -79 1182 l0 1105 -22 23 c-13 12
-31 27 -42 32 -11 6 -21 16 -24 23 -3 9 65 12 320 10 l323 -3 -320 -5z m2783
5 c-6 -7 -1449 -7 -1456 0 -3 3 325 5 728 5 403 0 731 -2 728 -5z m700 -2
c-93 -2 -243 -2 -335 0 -93 1 -17 3 167 3 184 0 260 -2 168 -3z m1059 -1140
c-4 -630 -10 -1149 -15 -1152 -4 -3 -18 -20 -30 -37 -14 -21 -37 -36 -66 -45
-25 -7 -43 -16 -40 -20 11 -19 -125 -24 -596 -24 -470 0 -588 5 -576 23 3 4
-18 16 -45 25 -27 10 -53 26 -59 37 -5 10 -18 26 -27 36 -16 15 -18 42 -21
196 -2 98 0 178 5 177 4 -1 15 -1 23 0 12 1 12 3 2 9 -13 9 44 24 138 38 25 4
54 13 65 20 11 7 39 16 62 20 24 3 41 10 38 14 -2 4 7 5 22 2 15 -3 23 -1 20
5 -3 5 27 15 66 22 40 7 77 17 82 21 6 4 20 11 32 14 l21 7 1 -213 0 -213 161
-3 c124 -2 160 0 160 10 0 7 0 183 0 390 0 350 1 377 17 387 10 6 14 11 8 11
-11 0 60 41 118 66 20 10 37 21 37 26 0 8 41 28 70 34 26 5 53 54 30 54 -24 0
-140 -33 -140 -40 0 -6 -60 -21 -141 -35 -21 -3 -50 -12 -65 -19 -16 -8 -57
-20 -92 -27 -35 -6 -59 -15 -53 -19 11 -6 -96 -30 -137 -30 -11 0 -22 -5 -24
-10 -4 -12 -100 -40 -136 -40 -13 0 -21 -4 -18 -9 4 -5 -4 -7 -16 -3 -12 3
-19 1 -15 -5 3 -5 1 -10 -6 -10 -30 0 -130 -26 -158 -40 -17 -9 -51 -18 -75
-21 -24 -2 -49 -11 -55 -18 -16 -19 -29 -17 -30 4 0 14 -2 14 -9 -3 -5 -12 -9
294 -9 724 l0 745 -28 22 -28 23 318 1 317 0 0 -510 0 -510 -25 -6 c-14 -3
-25 -10 -25 -15 0 -5 -16 -15 -35 -23 -19 -8 -35 -19 -35 -24 0 -5 -18 -15
-41 -22 -23 -8 -43 -19 -46 -26 -2 -6 -22 -17 -44 -24 -26 -9 -39 -19 -39 -32
0 -10 6 -18 13 -18 23 1 122 28 107 30 -22 3 35 18 94 25 28 4 56 11 62 16 6
5 43 17 83 27 39 10 69 21 66 24 -3 3 7 3 22 1 20 -3 24 -2 15 5 -10 6 11 13
67 22 l81 14 0 523 0 523 288 2 287 3 -290 5 -290 5 294 3 294 2 -6 -1147z
m-8807 1125 c0 -5 8 -8 19 -8 29 0 81 -21 76 -31 -3 -4 5 -11 19 -15 14 -3 31
-13 38 -22 11 -13 11 -14 -2 -7 -8 4 -3 -4 13 -18 l27 -26 -2 -1068 -3 -1068
-22 -25 c-13 -13 -23 -29 -23 -34 0 -12 -45 -36 -66 -36 -7 0 -19 -7 -28 -15
-29 -30 -160 -36 -646 -32 -449 4 -536 8 -525 27 3 5 -9 11 -25 15 -17 4 -37
17 -46 30 -8 13 -24 25 -34 28 -12 3 -20 14 -20 25 0 11 -4 22 -10 24 -16 5
-18 2148 -2 2148 11 0 13 4 12 25 -1 10 25 33 32 29 4 -3 15 4 25 15 10 11 35
22 56 26 20 4 37 10 37 14 0 3 247 6 550 6 302 0 550 -3 550 -7z m1757 0 c-7
-5 -1 -8 14 -8 34 0 89 -19 89 -31 0 -5 11 -14 25 -19 14 -5 25 -14 25 -20 0
-5 9 -19 20 -30 19 -19 19 -37 13 -1092 -5 -1033 -6 -1074 -24 -1094 -11 -11
-19 -24 -19 -30 0 -10 -47 -34 -66 -34 -7 0 -19 -7 -28 -15 -29 -30 -160 -36
-646 -32 -449 4 -536 8 -525 27 3 5 -9 11 -25 15 -17 4 -37 17 -46 30 -8 13
-24 25 -34 28 -12 3 -20 14 -20 26 0 12 -4 21 -10 21 -16 0 -14 2136 3 2156
12 16 40 44 67 69 9 8 35 17 58 21 23 4 42 9 42 13 0 3 247 6 549 6 302 0 544
-3 538 -7z m5280 -113 l2 -110 -395 2 -394 2 -5 -22 c-3 -12 -4 -195 -3 -407
3 -378 3 -385 23 -384 39 3 125 30 118 38 -4 4 1 4 11 0 10 -4 21 -2 25 4 6
10 16 12 106 28 22 4 45 10 50 14 14 11 119 40 143 40 11 0 27 6 34 14 8 7 33
17 56 21 l42 7 0 -115 0 -114 -62 -18 c-35 -9 -67 -20 -73 -24 -16 -10 -98
-30 -125 -31 -14 0 -35 -6 -46 -14 -11 -8 -51 -20 -88 -27 -38 -6 -63 -15 -57
-19 12 -7 -52 -23 -139 -36 -25 -4 -54 -13 -65 -20 -11 -7 -48 -18 -83 -25
-35 -6 -58 -15 -52 -19 6 -4 -7 -10 -30 -14 -51 -8 -83 -24 -75 -37 4 -5 68
-9 146 -9 l139 0 0 -340 c0 -187 -3 -339 -7 -338 -17 3 -103 -15 -103 -22 0
-4 -30 -14 -66 -21 -37 -7 -73 -19 -80 -26 -7 -7 -18 -13 -24 -13 -6 0 -8 -4
-5 -10 4 -6 196 -10 543 -10 l537 0 0 -121 0 -120 -580 4 c-545 4 -642 8 -630
27 3 4 -7 11 -23 14 -56 14 -79 30 -95 68 -15 35 -17 139 -19 1141 l-3 1102
-5 -880 -5 -880 -3 883 -2 883 -27 25 -26 24 709 -2 709 -3 2 -110z m-11356
-232 c13 -16 12 -17 -3 -4 -17 13 -22 21 -14 21 2 0 10 -8 17 -17z m9620 0
c13 -17 13 -17 -6 -3 -11 8 -22 16 -24 17 -2 2 0 3 6 3 6 0 17 -8 24 -17z m49
-386 c0 -193 -2 -348 -5 -346 -2 3 -5 158 -5 344 -1 229 -5 343 -12 352 -8 10
-7 12 6 7 14 -6 16 -41 16 -357z m-9623 -154 c-1 -93 -3 -17 -3 167 0 184 2
260 3 168 2 -93 2 -243 0 -335z m-261 332 c9 -8 11 -15 6 -15 -5 0 -15 7 -22
15 -7 8 -9 15 -6 15 4 0 14 -7 22 -15z m10211 -1577 c-1 -46 -3 -9 -3 82 0 91
2 128 3 83 2 -46 2 -120 0 -165z m0 -110 c-3 -8 -6 -5 -6 6 -1 11 2 17 5 13 3
-3 4 -12 1 -19z m-7446 -625 c13 -16 12 -17 -3 -4 -10 7 -18 15 -18 17 0 8 8
3 21 -13z m-444 1 c-3 -3 -12 -4 -19 -1 -8 3 -5 6 6 6 11 1 17 -2 13 -5z
m11428 -64 c-3 -5 -12 -10 -18 -10 -7 0 -6 4 3 10 19 12 23 12 15 0z m-10838
-16 c-3 -3 -12 -4 -19 -1 -8 3 -5 6 6 6 11 1 17 -2 13 -5z m-2055 -11 c-149
-2 -395 -2 -545 0 -149 1 -27 2 273 2 300 0 422 -1 272 -2z m10116 0 c-1473
-2 -3883 -2 -5355 0 -1473 1 -268 2 2677 2 2945 0 4150 -1 2678 -2z"/>
<path d="M5975 15449 c11 -13 21 -25 21 -27 1 -2 5 1 8 6 3 6 -7 18 -22 27
l-27 18 20 -24z"/>
<path d="M10105 14679 c-80 -12 -187 -45 -255 -79 -76 -38 -184 -120 -174
-130 5 -5 64 10 134 35 239 84 361 106 515 93 155 -13 309 -74 446 -175 95
-70 108 -51 28 39 -154 174 -419 257 -694 217z"/>
<path d="M10155 14414 c-123 -18 -299 -63 -433 -110 -86 -30 -182 -62 -212
-72 -76 -22 -281 -22 -374 1 -38 10 -71 15 -73 13 -15 -15 107 -204 188 -290
82 -89 152 -141 269 -204 433 -231 796 -181 1258 174 8 6 -50 201 -73 246 -80
160 -210 235 -420 243 -55 2 -113 1 -130 -1z m156 -138 c83 -18 138 -46 195
-98 58 -54 118 -159 110 -193 -4 -14 -41 -60 -84 -103 -214 -214 -487 -274
-809 -176 -141 42 -252 113 -376 241 -57 58 -157 187 -157 203 0 3 49 4 109 2
118 -4 244 12 416 54 55 14 109 27 120 30 11 2 -9 -9 -45 -26 -72 -34 -105
-61 -127 -104 -31 -60 11 -201 78 -264 59 -55 128 -76 254 -75 180 0 326 50
403 139 89 100 65 215 -62 301 -62 42 -132 63 -220 65 -66 1 -68 2 -26 8 76
12 152 10 221 -4z m-580 -383 c13 -16 12 -17 -3 -4 -17 13 -22 21 -14 21 2 0
10 -8 17 -17z m439 -83 c-8 -5 -22 -9 -30 -9 -10 0 -8 3 5 9 27 12 43 12 25 0z
m-303 -6 c-3 -3 -12 -4 -19 -1 -8 3 -5 6 6 6 11 1 17 -2 13 -5z m123 -20 c0
-2 -12 -4 -26 -4 -14 0 -23 4 -20 9 6 8 46 4 46 -5z m113 9 c-7 -2 -19 -2 -25
0 -7 3 -2 5 12 5 14 0 19 -2 13 -5z m-76 -9 c-3 -3 -12 -4 -19 -1 -8 3 -5 6 6
6 11 1 17 -2 13 -5z"/>
<path d="M11440 12655 c0 -21 47 -48 306 -179 368 -186 382 -197 403 -350 18
-131 14 -214 -14 -271 -57 -118 -119 -148 -405 -194 -324 -53 -701 -86 -1090
-97 -334 -9 -515 20 -795 129 -80 31 -236 109 -309 154 -107 68 -30 -64 134
-227 165 -166 372 -307 660 -451 274 -137 534 -235 800 -302 119 -30 134 -32
325 -32 110 0 250 6 310 13 61 7 128 15 150 17 22 3 81 9 130 15 193 21 404 3
767 -69 226 -45 324 -52 335 -25 3 10 1 31 -6 48 -6 17 -14 74 -18 127 -7 115
6 161 72 265 68 105 58 160 -42 235 -79 59 -164 88 -368 125 -283 51 -393 102
-446 206 -43 84 -65 336 -38 419 22 65 62 95 368 275 139 82 208 135 196 154
-3 5 -30 10 -58 10 -151 0 -341 -96 -508 -255 -54 -50 -62 -55 -78 -43 -201
147 -317 205 -564 279 -137 41 -217 50 -217 24z m915 -1107 c248 -88 404 -124
757 -173 26 -4 49 -13 52 -21 3 -7 -13 -36 -35 -64 -22 -29 -47 -68 -56 -87
-22 -54 -43 -176 -43 -254 0 -38 -3 -69 -6 -69 -3 0 -40 9 -82 20 -328 83
-757 111 -1154 74 -438 -41 -731 13 -1008 183 -101 62 -310 227 -310 244 0 3
48 9 106 12 58 4 262 23 452 42 191 19 374 37 407 40 84 8 370 42 490 60 55 7
125 17 155 20 30 4 57 9 60 12 14 14 119 -5 215 -39z"/>
<path d="M12045 10589 c-216 -26 -511 -72 -516 -81 -37 -59 106 -89 518 -108
234 -11 686 0 789 19 24 5 44 7 44 4 0 -2 9 1 20 7 11 6 20 15 20 20 0 16 -72
48 -156 69 -259 66 -532 93 -719 70z"/>
<path d="M14445 15420 c-21 -23 -9 -26 18 -6 10 8 14 17 9 20 -5 3 -17 -3 -27
-14z"/>
<path d="M14335 15330 c-3 -5 1 -10 9 -10 9 0 16 5 16 10 0 6 -4 10 -9 10 -6
0 -13 -4 -16 -10z"/>
<path d="M14285 15290 c-3 -5 -2 -10 4 -10 5 0 13 5 16 10 3 6 2 10 -4 10 -5
0 -13 -4 -16 -10z"/>
<path d="M14216 15221 c-3 -5 1 -11 9 -14 9 -4 12 -1 8 9 -6 16 -10 17 -17 5z"/>
<path d="M14145 15149 c-4 -6 -5 -12 -2 -15 2 -3 7 2 10 11 7 17 1 20 -8 4z"/>
<path d="M13860 15076 c0 -9 5 -16 10 -16 6 0 10 4 10 9 0 6 -4 13 -10 16 -5
3 -10 -1 -10 -9z"/>
<path d="M13630 14923 c0 -14 19 -38 25 -32 8 8 -5 39 -16 39 -5 0 -9 -3 -9
-7z"/>
<path d="M7705 8140 c10 -11 20 -20 23 -20 3 0 -3 9 -13 20 -10 11 -20 20 -23
20 -3 0 3 -9 13 -20z"/>
<path d="M7875 7970 c10 -11 20 -20 23 -20 3 0 -3 9 -13 20 -10 11 -20 20 -23
20 -3 0 3 -9 13 -20z"/>
<path d="M7960 7892 c0 -4 9 -15 20 -25 11 -9 20 -13 20 -9 0 4 -9 15 -20 25
-11 9 -20 13 -20 9z"/>
<path d="M8120 7756 c0 -3 9 -10 20 -16 11 -6 20 -8 20 -6 0 3 -9 10 -20 16
-11 6 -20 8 -20 6z"/>
<path d="M8406 7692 c-3 -5 1 -9 9 -9 8 0 12 4 9 9 -3 4 -7 8 -9 8 -2 0 -6 -4
-9 -8z"/>
<path d="M8440 7651 c0 -6 4 -13 10 -16 6 -3 7 1 4 9 -7 18 -14 21 -14 7z"/>
<path d="M8370 7596 c0 -2 7 -7 16 -10 8 -3 12 -2 9 4 -6 10 -25 14 -25 6z"/>
<path d="M8354 7581 c4 -6 16 -16 28 -22 15 -8 18 -8 14 0 -4 6 -16 16 -28 22
-15 8 -18 8 -14 0z"/>
<path d="M9002 7511 c-11 -6 -11 -10 0 -18 31 -24 42 -25 23 -3 -18 21 -18 23
-2 17 11 -4 16 -3 12 3 -7 12 -16 12 -33 1z"/>
<path d="M9090 7436 c0 -2 8 -10 18 -17 15 -13 16 -12 3 4 -13 16 -21 21 -21
13z"/>
<path d="M8590 7416 c0 -2 7 -7 16 -10 8 -3 12 -2 9 4 -6 10 -25 14 -25 6z"/>
<path d="M9130 7406 c0 -2 8 -10 18 -17 15 -13 16 -12 3 4 -13 16 -21 21 -21
13z"/>
<path d="M9244 7332 c3 -5 0 -13 -6 -15 -9 -4 -10 -6 -1 -6 17 -1 25 16 12 25
-7 4 -9 3 -5 -4z"/>
<path d="M9264 7302 c-8 -5 -3 -14 15 -26 26 -20 26 -20 8 0 -9 12 -14 24 -10
27 8 9 1 9 -13 -1z"/>
<path d="M9400 7191 c-8 -6 -18 -7 -23 -4 -5 3 2 -11 15 -30 12 -20 24 -34 26
-32 2 2 -3 14 -12 27 -15 21 -15 23 7 35 12 7 18 12 12 12 -5 1 -17 -3 -25 -8z"/>
<path d="M9421 7153 c7 -12 15 -20 18 -17 3 2 -3 12 -13 22 -17 16 -18 16 -5
-5z"/>
<path d="M9436 7111 c-3 -5 2 -15 12 -22 15 -12 16 -12 5 2 -7 9 -10 19 -6 22
3 4 4 7 0 7 -3 0 -8 -4 -11 -9z"/>
<path d="M9496 7112 c-2 -4 -1 -14 4 -22 7 -11 9 -9 7 8 -1 24 -3 26 -11 14z"/>
<path d="M9655 6869 c-4 -6 -5 -12 -2 -15 2 -3 7 2 10 11 7 17 1 20 -8 4z"/>
<path d="M9632 6801 c7 -12 14 -17 16 -11 2 6 9 7 15 3 7 -3 8 -2 4 3 -5 5
-12 9 -15 9 -4 0 -13 4 -20 9 -11 7 -11 4 0 -13z"/>
<path d="M9656 6757 c3 -10 9 -15 12 -12 3 3 0 11 -7 18 -10 9 -11 8 -5 -6z"/>
<path d="M10342 6630 c0 -14 2 -19 5 -12 2 6 2 18 0 25 -3 6 -5 1 -5 -13z"/>
<path d="M10338 6572 c-3 -11 0 -19 7 -19 7 0 10 8 7 19 -2 10 -6 18 -7 18 -1
0 -5 -8 -7 -18z"/>
<path d="M10351 6444 c0 -11 3 -14 6 -6 3 7 2 16 -1 19 -3 4 -6 -2 -5 -13z"/>
<path d="M9838 6373 l6 -28 6 25 7 25 6 -25 5 -25 -1 25 c-1 14 -9 26 -18 28
-13 2 -15 -3 -11 -25z"/>
<path d="M10340 6358 c0 -49 5 -47 13 5 3 20 2 37 -4 37 -5 0 -9 -19 -9 -42z"/>
<path d="M9902 6360 c0 -19 2 -27 5 -17 2 9 2 25 0 35 -3 9 -5 1 -5 -18z"/>
<path d="M9803 6323 c0 -27 2 -39 5 -28 2 11 8 22 13 25 9 6 0 50 -11 50 -4 0
-7 -21 -7 -47z"/>
<path d="M5598 5333 c78 -2 206 -2 285 0 78 1 14 3 -143 3 -157 0 -221 -2
-142 -3z"/>
<path d="M10437 5104 c-4 -4 -7 -418 -7 -920 0 -616 -3 -915 -10 -919 -6 -4
-26 -8 -46 -10 -19 -2 -50 -10 -68 -19 -18 -9 -51 -18 -72 -22 -48 -7 -86 -25
-92 -42 -3 -10 60 -12 305 -10 l308 3 3 950 c1 523 0 960 -3 972 -5 21 -10 21
-158 22 -84 1 -156 -1 -160 -5z"/>
<path d="M6615 5100 c-11 -17 5 -30 36 -30 21 0 28 -4 23 -12 -5 -8 -2 -9 9
-5 10 3 17 3 17 -1 0 -5 28 -14 63 -21 34 -7 79 -20 99 -29 l38 -17 0 -900 c0
-495 0 -906 0 -913 0 -10 36 -12 163 -10 l162 3 0 955 c0 525 -3 963 -8 973
-7 16 -31 17 -302 17 -185 0 -296 -4 -300 -10z"/>
<path d="M6430 3026 c0 -2 7 -7 16 -10 8 -3 12 -2 9 4 -6 10 -25 14 -25 6z"/>
<path d="M8375 5100 c-11 -17 5 -30 36 -30 21 0 28 -4 23 -12 -5 -8 -2 -9 9
-5 10 3 17 2 17 -3 0 -6 9 -10 20 -10 26 0 118 -25 152 -42 l28 -13 0 -913 0
-912 163 2 162 3 3 950 c1 523 0 960 -3 973 l-5 22 -300 0 c-188 0 -301 -4
-305 -10z"/>
<path d="M14442 4390 c0 -14 2 -19 5 -12 2 6 2 18 0 25 -3 6 -5 1 -5 -13z"/>
</g>
</svg>
